<svg id="Layer_1" data-name="Layer 1" xmlns="http://www.w3.org/2000/svg" viewBox="0 0 720 72"><defs><style>.cls-1{fill:#fdb913;}.cls-2{fill:#a30c33;}</style></defs><title>Full Color LONG MDOT</title><path d="M168.47,34.58h2.15l5,7.26,4.84-7.26h2.13V50.2h-2.43V39.38l-4.28,6.21h-.62l-4.38-6.23V50.2h-2.43Z"/><path d="M191.62,34.58h1.85l6.17,15.63h-2.55l-1.37-3.46h-6.41L188,50.2h-2.51Zm-1.43,9.84h4.62l-2.31-5.94Z"/><path d="M202.44,50.2V34.58H208a8.11,8.11,0,0,1,2.71.4,3.9,3.9,0,0,1,1.72,1.1,4.44,4.44,0,0,1,.85,1.53,6.06,6.06,0,0,1,.26,1.83,4.88,4.88,0,0,1-.84,2.83A4.2,4.2,0,0,1,210.42,44l4.22,6.25h-3l-3.84-5.74h-3V50.2Zm2.43-13.08v4.8H208a3.28,3.28,0,0,0,2.17-.66,2.25,2.25,0,0,0,.78-1.82,2.15,2.15,0,0,0-.69-1.72,3.65,3.65,0,0,0-2.38-.6Z"/><path d="M223.38,43.44V50.2h-2.43V43.44l-5.65-8.86h3l3.88,6.23,4-6.23h2.91Z"/><path d="M231.81,34.58h2.43V47.66h8V50.2H231.81Z"/><path d="M250.62,34.58h1.85l6.17,15.63h-2.55l-1.37-3.46h-6.41L247,50.2h-2.51Zm-1.43,9.84h4.62l-2.31-5.94Z"/><path d="M271.57,50.2l-7.76-10.65V50.2h-2.37V34.58h1.89l7.76,10.69V34.58h2.37V50.2Z"/><path d="M277.83,34.58h4.4a10.29,10.29,0,0,1,3.69.6,5.88,5.88,0,0,1,2.48,1.69,7.09,7.09,0,0,1,1.33,2.4,9.55,9.55,0,0,1,.42,2.92,8.2,8.2,0,0,1-2,5.79q-2,2.22-6.13,2.22h-4.14Zm2.43,2.54V47.66h1.89a5.33,5.33,0,0,0,4.13-1.46,5.72,5.72,0,0,0,1.34-4q0-5.07-5.43-5.07Z"/><path d="M300,34.58h4.4a10.29,10.29,0,0,1,3.69.6,5.88,5.88,0,0,1,2.48,1.69,7.09,7.09,0,0,1,1.33,2.4,9.55,9.55,0,0,1,.42,2.92,8.2,8.2,0,0,1-2,5.79q-2,2.22-6.13,2.22H300Zm2.43,2.54V47.66h1.89a5.33,5.33,0,0,0,4.13-1.46,5.72,5.72,0,0,0,1.34-4q0-5.07-5.43-5.07Z"/><path d="M315.89,34.58h10.45v2.54h-8v3.93h7.5v2.46h-7.5v4.15h8.22V50.2H315.89Z"/><path d="M330.33,50.2V34.58H336a8.54,8.54,0,0,1,2.9.44,4,4,0,0,1,1.81,1.22,5.09,5.09,0,0,1,.87,1.62,6.26,6.26,0,0,1,.26,1.86,5.62,5.62,0,0,1-.31,1.89,5,5,0,0,1-1,1.63,4.39,4.39,0,0,1-1.83,1.18,8,8,0,0,1-2.76.44h-3.24V50.2Zm2.43-13.1v5.22H336q3.38,0,3.38-2.63T336.1,37.1Z"/><path d="M348.81,34.58h1.85l6.17,15.63h-2.55l-1.37-3.46h-6.41l-1.35,3.46h-2.51Zm-1.43,9.84H352l-2.31-5.94Z"/><path d="M359.63,50.2V34.58h5.53a8.1,8.1,0,0,1,2.71.4,3.9,3.9,0,0,1,1.72,1.1,4.42,4.42,0,0,1,.85,1.53,6,6,0,0,1,.26,1.83,4.88,4.88,0,0,1-.84,2.83A4.2,4.2,0,0,1,367.61,44l4.22,6.25h-3L365,44.47h-3V50.2Zm2.43-13.08v4.8h3.16a3.28,3.28,0,0,0,2.17-.66,2.25,2.25,0,0,0,.78-1.82,2.15,2.15,0,0,0-.69-1.72,3.65,3.65,0,0,0-2.38-.6Z"/><path d="M373.27,34.58h11.88v2.54h-4.72V50.2H378V37.12h-4.72Z"/><path d="M388,34.58h2.15l5,7.26L400,34.58h2.13V50.2h-2.43V39.38l-4.28,6.21h-.62l-4.38-6.23V50.2H388Z"/><path d="M406.5,34.58H417v2.54h-8v3.93h7.5v2.46h-7.5v4.15h8.22V50.2H406.5Z"/><path d="M431.07,50.2l-7.76-10.65V50.2h-2.37V34.58h1.89l7.76,10.69V34.58H433V50.2Z"/><path d="M435.79,34.58h11.88v2.54h-4.72V50.2h-2.43V37.12h-4.72Z"/><path d="M458.19,36.71a6.85,6.85,0,0,1,10.23,0,8.15,8.15,0,0,1,2.08,5.71,8.14,8.14,0,0,1-2.09,5.7,6.85,6.85,0,0,1-10.21,0,8.13,8.13,0,0,1-2.09-5.71A8.18,8.18,0,0,1,458.19,36.71ZM460,46.28a4.38,4.38,0,0,0,6.62,0,5.65,5.65,0,0,0,1.34-3.9,5.56,5.56,0,0,0-1.38-3.88,4.34,4.34,0,0,0-6.58,0,5.58,5.58,0,0,0-1.37,3.9A5.59,5.59,0,0,0,460,46.28Z"/><path d="M474.1,34.58h10.35v2.54h-7.92v4.42h7.4v2.54h-7.4V50.2H474.1Z"/><path d="M492.83,34.58h11.88v2.54H500V50.2h-2.43V37.12h-4.72Z"/><path d="M507.53,50.2V34.58h5.53a8.1,8.1,0,0,1,2.71.4,3.9,3.9,0,0,1,1.72,1.1,4.42,4.42,0,0,1,.85,1.53,6,6,0,0,1,.26,1.83,4.88,4.88,0,0,1-.84,2.83A4.2,4.2,0,0,1,515.51,44l4.22,6.25h-3l-3.84-5.74h-3V50.2ZM510,37.12v4.8h3.16a3.28,3.28,0,0,0,2.17-.66,2.25,2.25,0,0,0,.78-1.82,2.15,2.15,0,0,0-.69-1.72,3.65,3.65,0,0,0-2.38-.6Z"/><path d="M528.09,34.58h1.85l6.17,15.63h-2.55l-1.37-3.46h-6.41l-1.35,3.46h-2.51Zm-1.43,9.84h4.62L529,38.49Z"/><path d="M549,50.2l-7.76-10.65V50.2h-2.37V34.58h1.89l7.76,10.69V34.58h2.37V50.2Z"/><path d="M562.91,44.76a3.29,3.29,0,0,0-1.25-.77,17.2,17.2,0,0,0-1.69-.51q-.92-.23-1.85-.56a8.73,8.73,0,0,1-1.69-.79,3.63,3.63,0,0,1-1.25-1.31,4.08,4.08,0,0,1,1.08-5.13,6,6,0,0,1,3.95-1.28,6.89,6.89,0,0,1,5.45,2.23l-1.33,1.92a6,6,0,0,0-4.18-1.63,4.35,4.35,0,0,0-2.09.46,1.51,1.51,0,0,0-.2,2.59,4.39,4.39,0,0,0,1.61.71q1,.23,2.09.6a20.62,20.62,0,0,1,2.09.8,3.83,3.83,0,0,1,1.61,1.38,4,4,0,0,1,.64,2.29,4.12,4.12,0,0,1-1.57,3.33,5.83,5.83,0,0,1-3.84,1.29,8.16,8.16,0,0,1-3.56-.82,7,7,0,0,1-2.63-2l1.45-1.9a6.22,6.22,0,0,0,5,2.23,3.34,3.34,0,0,0,2-.5,1.62,1.62,0,0,0,.7-1.39A1.65,1.65,0,0,0,562.91,44.76Z"/><path d="M569.46,50.2V34.58h5.69a8.54,8.54,0,0,1,2.9.44,4,4,0,0,1,1.81,1.22,5.09,5.09,0,0,1,.87,1.62,6.26,6.26,0,0,1,.26,1.86,5.62,5.62,0,0,1-.31,1.89,5,5,0,0,1-1,1.63,4.39,4.39,0,0,1-1.83,1.18,8,8,0,0,1-2.76.44H571.9V50.2Zm2.43-13.1v5.22h3.2q3.38,0,3.38-2.63t-3.24-2.59Z"/><path d="M585.8,36.71a6.85,6.85,0,0,1,10.23,0,8.15,8.15,0,0,1,2.08,5.71A8.14,8.14,0,0,1,596,48.1a6.85,6.85,0,0,1-10.21,0,8.13,8.13,0,0,1-2.09-5.71A8.18,8.18,0,0,1,585.8,36.71Zm1.82,9.57a4.38,4.38,0,0,0,6.62,0,5.65,5.65,0,0,0,1.34-3.9,5.56,5.56,0,0,0-1.38-3.88,4.34,4.34,0,0,0-6.58,0,5.58,5.58,0,0,0-1.37,3.9A5.59,5.59,0,0,0,587.62,46.28Z"/><path d="M601.71,50.2V34.58h5.53a8.1,8.1,0,0,1,2.71.4,3.9,3.9,0,0,1,1.72,1.1,4.42,4.42,0,0,1,.85,1.53,6,6,0,0,1,.26,1.83,4.88,4.88,0,0,1-.84,2.83A4.2,4.2,0,0,1,609.69,44l4.22,6.25h-3l-3.84-5.74h-3V50.2Zm2.43-13.08v4.8h3.16a3.28,3.28,0,0,0,2.17-.66,2.25,2.25,0,0,0,.78-1.82,2.15,2.15,0,0,0-.69-1.72,3.65,3.65,0,0,0-2.38-.6Z"/><path d="M615.35,34.58h11.88v2.54H622.5V50.2h-2.43V37.12h-4.72Z"/><path d="M633.12,34.58H635l6.17,15.63h-2.55l-1.37-3.46H630.8l-1.35,3.46h-2.51Zm-1.43,9.84h4.62L634,38.49Z"/><path d="M640.85,34.58h11.88v2.54H648V50.2h-2.43V37.12h-4.72Z"/><path d="M655.56,34.58H658V50.2h-2.43Z"/><path d="M663.62,36.71a6.85,6.85,0,0,1,10.23,0,8.15,8.15,0,0,1,2.08,5.71,8.14,8.14,0,0,1-2.09,5.7,6.85,6.85,0,0,1-10.21,0,8.13,8.13,0,0,1-2.09-5.71A8.18,8.18,0,0,1,663.62,36.71Zm1.82,9.57a4.38,4.38,0,0,0,6.62,0,5.65,5.65,0,0,0,1.34-3.9A5.56,5.56,0,0,0,672,38.51a4.34,4.34,0,0,0-6.58,0,5.58,5.58,0,0,0-1.37,3.9A5.59,5.59,0,0,0,665.44,46.28Z"/><path d="M689.67,50.2l-7.76-10.65V50.2h-2.37V34.58h1.89l7.76,10.69V34.58h2.37V50.2Z"/><path d="M160.09,50.21h2.15v.4h-.84v1.79H161V50.6h-.89Zm2.48,0h.37l.93,1.07.89-1.07h.37v2.19h-.43V50.81l-.83,1h0l-.85-1v1.58h-.43Z"/><path d="M108.9,32.12h0c0-.11,0-.22,0-.33s0-.34.05-.5a5.72,5.72,0,0,0-1-2.45A5.79,5.79,0,0,0,105.85,27a5.68,5.68,0,0,0-2.24-.61l-.06.1h0a12.32,12.32,0,0,0-.82,2q-.11.35-.19.7a12.27,12.27,0,0,0-.36,2.94h0v3.51h6.72Z"/><path d="M135.45,19.8H114.52a12.25,12.25,0,0,0-5.63,1.37l-.11.06.06,0a12.39,12.39,0,0,1,5.26,5.25h.12l.3,0h20.87l.06-.1Z"/><polygon points="70.19 43.92 76.87 35.04 76.87 20.06 76.87 19.61 68.75 19.61 63.69 26.33 52.36 41.39 52.36 19.95 52.36 19.61 44.25 19.61 21.22 50.21 29.59 50.21 45.68 28.83 45.68 50.21 52.36 50.21 54.1 50.21 70.19 28.83 70.19 43.92"/><path class="cls-1" d="M109,48.84l-.06,0a12.22,12.22,0,0,1-5.26-5.25h-.12l-.3,0H78.73l6.51-8.65H76.87l-6.68,8.88v6.46h33.07l.76,0,.7-.06.23,0,.46-.07.26-.05.42-.09.27-.07.4-.11.26-.08.4-.14.24-.09.42-.17.2-.09.61-.29h0Z"/><path class="cls-1" d="M103.55,26.49h0a5.6,5.6,0,0,1,2.25.61,5.67,5.67,0,0,1,2.08,1.8,5.61,5.61,0,0,1,1,2.89v.06c0,.09,0,.18,0,.27h0v5.82h0c0,.09,0,.18,0,.27v.06c0,.17,0,.33-.05.5a5.74,5.74,0,0,0,5.33,4.91l.06-.1a12.29,12.29,0,0,0,1-2.69q.09-.35.15-.72a12.3,12.3,0,0,0,.2-2.23h0V32.12h0a12.3,12.3,0,0,0-.2-2.23q-.07-.36-.15-.72a12.29,12.29,0,0,0-1-2.69,12.41,12.41,0,0,0-5.33-5.33,12.25,12.25,0,0,0-5.63-1.37H83l-5,6.68h25.25Z"/><path d="M147.59,32.12c0-.24,0-.47,0-.7v-.21c0-.17,0-.33,0-.5l0-.13V30.5q0-.25-.08-.49l0-.19h0q-.05-.29-.12-.57v-.09c-.06-.26-.15-.51-.23-.76a12.32,12.32,0,0,0-.47-1.26h0q-.14-.33-.31-.64h0l-.06-.11H135.45l-.06.1h.16l.22,0a5.81,5.81,0,0,1,1.87.5h0l.46.24h0l.41.27,0,0,.37.29.06.05.32.3,0,0,0,0,.23.26,0,0,.09.12L140,29l.09.16,0,0,.15.25.1.2c0,.09.09.19.13.28l.06.17,0,.07c0,.09.07.18.09.27s.05.19.07.29,0,.16.06.24,0,.24.05.36,0,.13,0,.19,0,.38,0,.57v5.82c0,.19,0,.38,0,.57s0,.13,0,.19,0,.24-.05.36,0,.16-.06.24,0,.19-.07.29-.06.18-.09.27l0,.07-.06.17c0,.1-.09.19-.13.28l-.1.2-.15.25,0,0L140,41l-.22.31-.09.12,0,0-.23.26,0,0,0,0-.32.3-.06.05-.37.29,0,0-.41.27h0l-.46.24h0a5.81,5.81,0,0,1-1.87.5l-.22,0-.3,0H114.52l-.3,0a5.65,5.65,0,0,1-5.33-5.3c0-.11,0-.22,0-.33h0V35.21h-6.72v2.73h0a12.25,12.25,0,0,0,1.37,5.63h0a12.34,12.34,0,0,0,5.33,5.33,12.25,12.25,0,0,0,5.63,1.37h20.74a12.34,12.34,0,0,0,11-6.7h0q.16-.31.31-.64h0a12.32,12.32,0,0,0,.47-1.26c.08-.25.16-.5.23-.76v-.09q.07-.28.12-.57h0l0-.19q0-.25.08-.49v-.09l0-.13c0-.16,0-.33,0-.5v-.21c0-.23,0-.47,0-.7h0V32.12h0Z"/><polygon class="cls-2" points="135.35 19.79 135.35 26.49 151.23 26.49 151.23 50.21 157.91 50.21 157.91 26.49 167.18 26.49 173.83 19.83 173.83 19.79 135.35 19.79"/></svg>